<svg width="510" height="540" xmlns="http://www.w3.org/2000/svg"><path d="M60 0h30v30H60zM90 0h30v30H90zM30 30h30v30H30z"/><path fill="#FFF" d="M60 30h30v30H60z"/><path fill="#E0E0E0" d="M90 30h30v30H90z"/><path d="M120 30h30v30h-30zM30 60h30v30H30z"/><path fill="#FFF" d="M60 60h30v30H60z"/><path fill="#E0E0E0" d="M90 60h30v30H90z"/><path d="M120 60h30v30h-30zM180 60h30v30h-30zM210 60h30v30h-30zM240 60h30v30h-30zM270 60h30v30h-30zM300 60h30v30h-30zM30 90h30v30H30z"/><path fill="#FFF" d="M60 90h30v30H60z"/><path fill="#E0E0E0" d="M90 90h30v30H90z"/><path d="M120 90h30v30h-30zM150 90h30v30h-30z"/><path fill="#8D6E63" d="M180 90h30v30h-30zM210 90h30v30h-30zM240 90h30v30h-30zM270 90h30v30h-30zM300 90h30v30h-30z"/><path d="M330 90h30v30h-30zM360 90h30v30h-30zM390 90h30v30h-30zM420 90h30v30h-30zM30 120h30v30H30z"/><path fill="#FFF" d="M60 120h30v30H60z"/><path fill="#E0E0E0" d="M90 120h30v30H90z"/><path d="M120 120h30v30h-30z"/><path fill="#8D6E63" d="M150 120h30v30h-30zM180 120h30v30h-30zM210 120h30v30h-30zM240 120h30v30h-30zM270 120h30v30h-30zM300 120h30v30h-30zM330 120h30v30h-30zM360 120h30v30h-30zM390 120h30v30h-30z"/><path d="M420 120h30v30h-30zM30 150h30v30H30z"/><path fill="#FFF" d="M60 150h30v30H60z"/><path fill="#E0E0E0" d="M90 150h30v30H90z"/><path d="M120 150h30v30h-30z"/><path fill="#8D6E63" d="M150 150h30v30h-30zM180 150h30v30h-30zM210 150h30v30h-30zM240 150h30v30h-30zM270 150h30v30h-30zM300 150h30v30h-30zM330 150h30v30h-30z"/><path fill="#6D4C41" d="M360 150h30v30h-30z"/><path d="M390 150h30v30h-30zM30 180h30v30H30z"/><path fill="#FFF" d="M60 180h30v30H60z"/><path fill="#E0E0E0" d="M90 180h30v30H90z"/><path d="M120 180h30v30h-30z"/><path fill="#BCAAA4" d="M150 180h30v30h-30zM180 180h30v30h-30z"/><path fill="#8D6E63" d="M210 180h30v30h-30zM240 180h30v30h-30zM270 180h30v30h-30zM300 180h30v30h-30z"/><path fill="#BCAAA4" d="M330 180h30v30h-30z"/><path fill="#6D4C41" d="M360 180h30v30h-30zM390 180h30v30h-30z"/><path d="M420 180h30v30h-30zM30 210h30v30H30z"/><path fill="#FFF" d="M60 210h30v30H60z"/><path fill="#E0E0E0" d="M90 210h30v30H90z"/><path d="M120 210h30v30h-30z"/><path fill="#6D4C41" d="M150 210h30v30h-30zM180 210h30v30h-30z"/><path d="M210 210h30v30h-30z"/><path fill="#6D4C41" d="M240 210h30v30h-30z"/><path d="M270 210h30v30h-30z"/><path fill="#6D4C41" d="M300 210h30v30h-30zM330 210h30v30h-30zM360 210h30v30h-30z"/><path d="M390 210h30v30h-30zM30 240h30v30H30zM60 240h30v30H60zM90 240h30v30H90zM120 240h30v30h-30zM150 240h30v30h-30zM180 240h30v30h-30z"/><path fill="#FDD835" d="M210 240h30v30h-30z"/><path fill="#0277BD" d="M240 240h30v30h-30z"/><path fill="#FDD835" d="M270 240h30v30h-30z"/><path d="M300 240h30v30h-30zM330 240h30v30h-30zM360 240h30v30h-30zM0 270h30v30H0z"/><path fill="#0277BD" d="M30 270h30v30H30zM60 270h30v30H60zM90 270h30v30H90z"/><path d="M120 270h30v30h-30z"/><path fill="#FFEDB5" d="M150 270h30v30h-30z"/><path d="M180 270h30v30h-30z"/><path fill="#FFEDB5" d="M210 270h30v30h-30zM240 270h30v30h-30zM270 270h30v30h-30z"/><path d="M300 270h30v30h-30z"/><path fill="#FFEDB5" d="M330 270h30v30h-30z"/><path d="M360 270h30v30h-30zM30 300h30v30H30zM60 300h30v30H60zM90 300h30v30H90zM120 300h30v30h-30zM150 300h30v30h-30z"/><path fill="#FFEDB5" d="M180 300h30v30h-30zM210 300h30v30h-30zM240 300h30v30h-30zM270 300h30v30h-30zM300 300h30v30h-30z"/><path d="M330 300h30v30h-30zM360 300h30v30h-30zM390 300h30v30h-30zM420 300h30v30h-30zM450 300h30v30h-30zM480 300h30v30h-30zM30 330h30v30H30z"/><path fill="#FFEDB5" d="M60 330h30v30H60zM90 330h30v30H90z"/><path d="M120 330h30v30h-30z"/><path fill="#3B50CE" d="M150 330h30v30h-30z"/><path d="M180 330h30v30h-30zM210 330h30v30h-30zM240 330h30v30h-30zM270 330h30v30h-30zM300 330h30v30h-30zM330 330h30v30h-30z"/><path fill="#FFEE58" d="M360 330h30v30h-30zM390 330h30v30h-30zM420 330h30v30h-30zM450 330h30v30h-30z"/><path d="M480 330h30v30h-30zM30 360h30v30H30z"/><path fill="#FFEDB5" d="M60 360h30v30H60z"/><path fill="#FFE082" d="M90 360h30v30H90z"/><path d="M120 360h30v30h-30z"/><path fill="#3B50CE" d="M150 360h30v30h-30zM180 360h30v30h-30zM210 360h30v30h-30zM240 360h30v30h-30zM270 360h30v30h-30zM300 360h30v30h-30z"/><path d="M330 360h30v30h-30z"/><path fill="#FFEE58" d="M360 360h30v30h-30z"/><path fill="#0277BD" d="M390 360h30v30h-30zM420 360h30v30h-30z"/><path fill="#FFEE58" d="M450 360h30v30h-30z"/><path d="M480 360h30v30h-30zM60 390h30v30H60zM90 390h30v30H90zM120 390h30v30h-30z"/><path fill="#6D4C41" d="M150 390h30v30h-30zM180 390h30v30h-30zM210 390h30v30h-30zM240 390h30v30h-30zM270 390h30v30h-30zM300 390h30v30h-30z"/><path d="M330 390h30v30h-30z"/><path fill="#FDD835" d="M360 390h30v30h-30z"/><path fill="#0277BD" d="M390 390h30v30h-30zM420 390h30v30h-30z"/><path fill="#FDD835" d="M450 390h30v30h-30z"/><path d="M480 390h30v30h-30zM120 420h30v30h-30z"/><path fill="#3B50CE" d="M150 420h30v30h-30zM180 420h30v30h-30zM210 420h30v30h-30zM240 420h30v30h-30zM270 420h30v30h-30zM300 420h30v30h-30zM330 420h30v30h-30z"/><path d="M360 420h30v30h-30z"/><path fill="#FDD835" d="M390 420h30v30h-30zM420 420h30v30h-30z"/><path d="M450 420h30v30h-30zM150 450h30v30h-30z"/><path fill="#8D6E63" d="M180 450h30v30h-30zM210 450h30v30h-30z"/><path d="M240 450h30v30h-30z"/><path fill="#8D6E63" d="M270 450h30v30h-30zM300 450h30v30h-30z"/><path d="M330 450h30v30h-30zM390 450h30v30h-30zM420 450h30v30h-30zM150 480h30v30h-30z"/><path fill="#6D4C41" d="M180 480h30v30h-30zM210 480h30v30h-30z"/><path d="M240 480h30v30h-30z"/><path fill="#6D4C41" d="M270 480h30v30h-30z"/><path d="M300 480h30v30h-30zM180 510h30v30h-30z"/><path fill="#6D4C41" d="M210 510h30v30h-30z"/><path d="M240 510h30v30h-30zM270 510h30v30h-30zM300 510h30v30h-30zM330 510h30v30h-30z"/></svg>